# xmcd
#
# Track frame offsets:
#	150
#	18120
#	33880
#	94233
#	110190
#	123742
#	138229
#	154816
#	224896
#	238650
#	255669
#	270919
#	292112
#	308875
#	337938
#
# Disc length: 4794 seconds
#
# Revision: 5
# Processed by: cddbd v1.5.2PL0 Copyright (c) Steve Scherf et al.
# Submitted via: EasyCDDAExtractor 15.3.0.1
#
DISCID=de12b80f
DTITLE=RBD - Tour Generacion RBD En Vivo
DYEAR=2005
DGENRE=Latin
TTITLE0=Rebelde
TTITLE1=Otro Dia Que Va
TTITLE2=Medley 1 (Me He Enamorado De Un Fan, No Se Si Es Amor, Amame Hasta Con
TTITLE2=Los Dientes, Rayo Rebelde, Baile Del Sapo, Me Vale)
TTITLE3=Enseñame
TTITLE4=Futuro Ex-Novio
TTITLE5=A Rabiar
TTITLE6=Una Cancion
TTITLE7=Medley 2 (Cuando Baja La Marea, Te Quiero, Verano Peligroso, Devuelvem
TTITLE7=e A Mi Chica, La Chica Del Bikini Azul, Viviendo De Noche, De Musica L
TTITLE7=igera, Es Mejor Asi)
TTITLE8=Fuego
TTITLE9=Salvame
TTITLE10=Tenerte Y Quererte
TTITLE11=Un Poco De Tu Amor
TTITLE12=Solo Quedate En Silencio
TTITLE13=Rebelde (Version Cumbia)
TTITLE14=Video
EXTD=YEAR: 2005
EXTT0=
EXTT1=
EXTT2=
EXTT3=
EXTT4=
EXTT5=
EXTT6=
EXTT7=
EXTT8=
EXTT9=
EXTT10=
EXTT11=
EXTT12=
EXTT13=
EXTT14=
PLAYORDER=
